<svg width="32" height="33" viewBox="0 0 32 33" fill="none" xmlns="http://www.w3.org/2000/svg">
<path d="M22.6667 23.3404C23.2223 23.3404 23.6945 23.1459 24.0834 22.757C24.4723 22.3681 24.6667 21.8959 24.6667 21.3404C24.6667 20.7848 24.4723 20.3126 24.0834 19.9237C23.6945 19.5348 23.2223 19.3404 22.6667 19.3404C22.1112 19.3404 21.639 19.5348 21.2501 19.9237C20.8612 20.3126 20.6667 20.7848 20.6667 21.3404C20.6667 21.8959 20.8612 22.3681 21.2501 22.757C21.639 23.1459 22.1112 23.3404 22.6667 23.3404ZM22.6667 27.3404C23.3727 27.3404 24.0103 27.1835 24.5794 26.8697C25.1487 26.5561 25.6197 26.1327 25.9924 25.5994C25.4864 25.2934 24.9556 25.0626 24.4001 24.907C23.8445 24.7515 23.2667 24.6737 22.6667 24.6737C22.0667 24.6737 21.489 24.7515 20.9334 24.907C20.3779 25.0626 19.8471 25.2934 19.3411 25.5994C19.7137 26.1327 20.1847 26.5561 20.7541 26.8697C21.3232 27.1835 21.9607 27.3404 22.6667 27.3404ZM16.0001 28.6224C13.3214 27.8275 11.0962 26.2048 9.32442 23.7544C7.55264 21.3039 6.66675 18.5437 6.66675 15.4737V8.26337L16.0001 4.77637L25.3334 8.26337V15.8044C25.1334 15.7293 24.9137 15.6621 24.6744 15.603C24.4351 15.5441 24.2103 15.4899 24.0001 15.4404V9.18137L16.0001 6.20703L8.00008 9.18137V15.4737C8.00008 16.7917 8.19453 18.0541 8.58341 19.261C8.9723 20.4677 9.50219 21.5775 10.1731 22.5904C10.844 23.6033 11.6376 24.4883 12.5541 25.2454C13.4703 26.0027 14.4472 26.5797 15.4847 26.9764L15.5617 26.9507C15.6693 27.2174 15.8034 27.4764 15.9641 27.7277C16.1247 27.9788 16.3069 28.2147 16.5104 28.4354C16.4197 28.4694 16.3346 28.5005 16.2551 28.5287C16.1757 28.5569 16.0907 28.5881 16.0001 28.6224ZM22.6667 28.6737C21.1812 28.6737 19.921 28.1561 18.8861 27.121C17.851 26.0861 17.3334 24.8259 17.3334 23.3404C17.3334 21.8548 17.851 20.5946 18.8861 19.5597C19.921 18.5246 21.1812 18.007 22.6667 18.007C24.1523 18.007 25.4125 18.5246 26.4474 19.5597C27.4825 20.5946 28.0001 21.8548 28.0001 23.3404C28.0001 24.8259 27.4825 26.0861 26.4474 27.121C25.4125 28.1561 24.1523 28.6737 22.6667 28.6737Z" fill="white"/>
</svg>
