<svg width="32" height="33" viewBox="0 0 32 33" fill="none" xmlns="http://www.w3.org/2000/svg">
<path d="M20.8617 22.4788L21.805 21.5355L16.6667 16.3962V10.0072H15.3333V16.9508L20.8617 22.4788ZM16.0043 28.6738C14.345 28.6738 12.7849 28.3589 11.324 27.7292C9.86333 27.0994 8.59267 26.2447 7.512 25.1652C6.43133 24.0856 5.57589 22.8161 4.94567 21.3565C4.31522 19.8972 4 18.3377 4 16.6782C4 15.0188 4.31489 13.4587 4.94467 11.9978C5.57444 10.5372 6.42911 9.26649 7.50867 8.18583C8.58822 7.10516 9.85778 6.24972 11.3173 5.61949C12.7767 4.98905 14.3361 4.67383 15.9957 4.67383C17.655 4.67383 19.2151 4.98872 20.676 5.6185C22.1367 6.24827 23.4073 7.10294 24.488 8.1825C25.5687 9.26205 26.4241 10.5316 27.0543 11.9912C27.6848 13.4505 28 15.0099 28 16.6695C28 18.3288 27.6851 19.8889 27.0553 21.3498C26.4256 22.8105 25.5709 24.0812 24.4913 25.1618C23.4118 26.2425 22.1422 27.0979 20.6827 27.7282C19.2233 28.3586 17.6639 28.6738 16.0043 28.6738ZM16 27.3405C18.9556 27.3405 21.4722 26.3016 23.55 24.2238C25.6278 22.1461 26.6667 19.6294 26.6667 16.6738C26.6667 13.7183 25.6278 11.2016 23.55 9.12383C21.4722 7.04605 18.9556 6.00716 16 6.00716C13.0444 6.00716 10.5278 7.04605 8.45 9.12383C6.37222 11.2016 5.33333 13.7183 5.33333 16.6738C5.33333 19.6294 6.37222 22.1461 8.45 24.2238C10.5278 26.3016 13.0444 27.3405 16 27.3405Z" fill="white"/>
</svg>
