<svg width="20" height="14" viewBox="0 0 20 14" fill="none" xmlns="http://www.w3.org/2000/svg">
<path d="M4.5 14C3.2525 14 2.19067 13.5648 1.3145 12.6943C0.438167 11.8238 0 10.7648 0 9.51727C0 8.37111 0.391667 7.35386 1.175 6.46552C1.95833 5.57702 2.93208 5.10002 4.09625 5.03452C4.26408 3.79619 4.88583 2.65777 5.9615 1.61927C7.03717 0.580773 8.21667 0.0615234 9.5 0.0615234C9.768 0.0615234 10.0017 0.161189 10.201 0.360522C10.4003 0.559856 10.5 0.793523 10.5 1.06152V8.34227L12.5615 6.29227L13.2693 7.00002L10 10.2693L6.73075 7.00002L7.4385 6.29227L9.5 8.34227V1.06152C8.24617 1.11536 7.18267 1.66052 6.3095 2.69702C5.4365 3.73369 5 4.83469 5 6.00002H4.5C3.53333 6.00002 2.70833 6.34169 2.025 7.02502C1.34167 7.70836 1 8.53336 1 9.50002C1 10.4667 1.34167 11.2917 2.025 11.975C2.70833 12.6584 3.53333 13 4.5 13H16.5C17.2 13 17.7917 12.7584 18.275 12.275C18.7583 11.7917 19 11.2 19 10.5C19 9.80002 18.7583 9.20836 18.275 8.72502C17.7917 8.24169 17.2 8.00002 16.5 8.00002H15V6.00002C15 5.17436 14.8167 4.41569 14.45 3.72402C14.0833 3.03236 13.6 2.45769 13 2.00002V0.809523C13.9385 1.32886 14.6731 2.05361 15.2038 2.98377C15.7346 3.91377 16 4.91919 16 6.00002V7.00002H16.6155C17.5732 7.03086 18.3767 7.38244 19.026 8.05477C19.6753 8.72727 20 9.54236 20 10.5C20 11.4809 19.6618 12.3094 18.9855 12.9855C18.3093 13.6619 17.4808 14 16.5 14H4.5Z" fill="#1A9BF1"/>
</svg>
