<svg width="22" height="24" viewBox="0 0 22 24" fill="none" xmlns="http://www.w3.org/2000/svg">
<path d="M2.99992 24C2.2477 24 1.61525 23.7436 1.10259 23.2307C0.589696 22.718 0.333252 22.0856 0.333252 21.3333V19.7437C0.333252 19.4341 0.435363 19.1772 0.639585 18.973C0.843808 18.7688 1.1007 18.6667 1.41025 18.6667H4.33325V1.03067C4.33325 0.909333 4.37859 0.829444 4.46925 0.791C4.5597 0.752555 4.65192 0.763223 4.74592 0.823L5.73825 1.482C5.83759 1.54689 5.93336 1.57933 6.02559 1.57933C6.11781 1.57933 6.21347 1.54689 6.31259 1.482L7.48192 0.723C7.58103 0.658111 7.67681 0.625668 7.76925 0.625668C7.86147 0.625668 7.95714 0.658111 8.05625 0.723L9.22559 1.482C9.3247 1.54689 9.42036 1.57933 9.51259 1.57933C9.60503 1.57933 9.70081 1.54689 9.79992 1.482L10.9693 0.723C11.0684 0.658111 11.164 0.625668 11.2563 0.625668C11.3487 0.625668 11.4445 0.658111 11.5436 0.723L12.7126 1.482C12.8119 1.54689 12.9077 1.57933 12.9999 1.57933C13.0921 1.57933 13.1879 1.54689 13.2873 1.482L14.4563 0.723C14.5554 0.658111 14.6511 0.625668 14.7436 0.625668C14.8358 0.625668 14.9315 0.658111 15.0306 0.723L16.1999 1.482C16.299 1.54689 16.3948 1.57933 16.4873 1.57933C16.5795 1.57933 16.6751 1.54689 16.7743 1.482L17.9436 0.723C18.0427 0.658111 18.1384 0.625668 18.2306 0.625668C18.323 0.625668 18.4188 0.658111 18.5179 0.723L19.6873 1.482C19.7864 1.54689 19.882 1.57933 19.9743 1.57933C20.0665 1.57933 20.1623 1.54689 20.2616 1.482L21.2539 0.823C21.3479 0.763223 21.4401 0.752555 21.5306 0.791C21.6213 0.829444 21.6666 0.909333 21.6666 1.03067V21.3333C21.6666 22.0856 21.4101 22.718 20.8973 23.2307C20.3846 23.7436 19.7521 24 18.9999 24H2.99992ZM18.9999 22.6667C19.3777 22.6667 19.6944 22.5389 19.9499 22.2833C20.2055 22.0278 20.3333 21.7111 20.3333 21.3333V2.66667H5.66659V18.6667H16.5896C16.8991 18.6667 17.156 18.7688 17.3603 18.973C17.5645 19.1772 17.6666 19.4341 17.6666 19.7437V21.3333C17.6666 21.7111 17.7944 22.0278 18.0499 22.2833C18.3055 22.5389 18.6221 22.6667 18.9999 22.6667ZM8.17925 6H13.9743C14.164 6 14.3226 6.06367 14.4499 6.191C14.5773 6.31833 14.6409 6.47689 14.6409 6.66667C14.6409 6.85645 14.5773 7.015 14.4499 7.14233C14.3226 7.26967 14.164 7.33333 13.9743 7.33333H8.17925C7.9897 7.33333 7.83125 7.26967 7.70392 7.14233C7.57636 7.015 7.51259 6.85645 7.51259 6.66667C7.51259 6.47689 7.57636 6.31833 7.70392 6.191C7.83125 6.06367 7.9897 6 8.17925 6ZM8.17925 10H13.9743C14.164 10 14.3226 10.0637 14.4499 10.191C14.5773 10.3183 14.6409 10.4769 14.6409 10.6667C14.6409 10.8564 14.5773 11.015 14.4499 11.1423C14.3226 11.2697 14.164 11.3333 13.9743 11.3333H8.17925C7.9897 11.3333 7.83125 11.2697 7.70392 11.1423C7.57636 11.015 7.51259 10.8564 7.51259 10.6667C7.51259 10.4769 7.57636 10.3183 7.70392 10.191C7.83125 10.0637 7.9897 10 8.17925 10ZM17.5126 7.69233C17.2375 7.69233 16.9978 7.59022 16.7936 7.386C16.5894 7.18156 16.4873 6.94178 16.4873 6.66667C16.4873 6.39156 16.5894 6.15178 16.7936 5.94733C16.9978 5.74311 17.2375 5.641 17.5126 5.641C17.7879 5.641 18.0277 5.74311 18.2319 5.94733C18.4361 6.15178 18.5383 6.39156 18.5383 6.66667C18.5383 6.94178 18.4361 7.18156 18.2319 7.386C18.0277 7.59022 17.7879 7.69233 17.5126 7.69233ZM17.5126 11.6923C17.2375 11.6923 16.9978 11.5902 16.7936 11.386C16.5894 11.1816 16.4873 10.9418 16.4873 10.6667C16.4873 10.3916 16.5894 10.1518 16.7936 9.94733C16.9978 9.74311 17.2375 9.641 17.5126 9.641C17.7879 9.641 18.0277 9.74311 18.2319 9.94733C18.4361 10.1518 18.5383 10.3916 18.5383 10.6667C18.5383 10.9418 18.4361 11.1816 18.2319 11.386C18.0277 11.5902 17.7879 11.6923 17.5126 11.6923Z" fill="#3A0092"/>
</svg>
