<svg width="1582" height="1597" viewBox="0 0 1582 1597" fill="none" xmlns="http://www.w3.org/2000/svg">
<path opacity="0.6" d="M101.402 839.75C96.1328 830.623 96.1328 819.377 101.402 810.25L340.428 396.247C345.697 387.12 355.436 381.497 365.976 381.497L844.024 381.497C854.564 381.497 864.303 387.12 869.572 396.247L1108.6 810.25C1113.78 819.235 1113.87 830.272 1108.84 839.32L1108.6 839.75L869.572 1253.75C864.303 1262.88 854.564 1268.5 844.024 1268.5L365.976 1268.5C355.436 1268.5 345.697 1262.88 340.428 1253.75L101.402 839.75Z" stroke="url(#paint0_linear_195_7048)" stroke-width="5"/>
<path opacity="0.6" d="M11.4023 808.75C6.13277 799.623 6.13273 788.377 11.4023 779.25L394.428 115.832C399.697 106.705 409.436 101.082 419.976 101.082L1186.03 101.082C1196.56 101.082 1206.3 106.705 1211.57 115.832L1594.6 779.25C1599.87 788.377 1599.87 799.623 1594.6 808.75L1211.57 1472.17C1206.3 1481.3 1196.56 1486.92 1186.03 1486.92L419.976 1486.92C409.436 1486.92 399.697 1481.3 394.428 1472.17L11.4023 808.75Z" stroke="url(#paint1_linear_195_7048)" stroke-width="5"/>
<defs>
<linearGradient id="paint0_linear_195_7048" x1="749.5" y1="519" x2="397" y2="1384" gradientUnits="userSpaceOnUse">
<stop stop-color="#ACB2D6" stop-opacity="0.01"/>
<stop offset="1" stop-color="#5A5D70"/>
</linearGradient>
<linearGradient id="paint1_linear_195_7048" x1="564" y1="1479.5" x2="1083.5" y2="137.5" gradientUnits="userSpaceOnUse">
<stop stop-color="#5A5D70"/>
<stop offset="1" stop-color="#ACB2D6" stop-opacity="0.01"/>
</linearGradient>
</defs>
</svg>
