<svg width="20" height="21" viewBox="0 0 20 21" fill="none" xmlns="http://www.w3.org/2000/svg">
<path d="M0.666748 19.3333V7.74367C0.666748 7.40256 0.743081 7.07944 0.895748 6.77433C1.04819 6.46922 1.25908 6.218 1.52841 6.02067L8.70775 0.584666C9.08353 0.297555 9.51297 0.154 9.99608 0.154C10.4792 0.154 10.9113 0.297555 11.2924 0.584666L18.4717 6.02067C18.7411 6.218 18.952 6.46922 19.1044 6.77433C19.2571 7.07944 19.3334 7.40256 19.3334 7.74367V19.3333C19.3334 19.6907 19.2005 20.0022 18.9347 20.268C18.669 20.5338 18.3574 20.6667 18.0001 20.6667H13.4874C13.1821 20.6667 12.9263 20.5634 12.7201 20.357C12.5136 20.1506 12.4104 19.8948 12.4104 19.5897V13.2307C12.4104 12.9256 12.3072 12.6698 12.1007 12.4633C11.8943 12.2571 11.6385 12.154 11.3334 12.154H8.66675C8.36164 12.154 8.10586 12.2571 7.89941 12.4633C7.69297 12.6698 7.58975 12.9256 7.58975 13.2307V19.5897C7.58975 19.8948 7.48653 20.1506 7.28008 20.357C7.07386 20.5634 6.81808 20.6667 6.51275 20.6667H2.00008C1.64275 20.6667 1.33119 20.5338 1.06541 20.268C0.799637 20.0022 0.666748 19.6907 0.666748 19.3333Z" fill="#3A0092"/>
</svg>
