<svg width="20" height="21" viewBox="0 0 20 21" fill="none" xmlns="http://www.w3.org/2000/svg">
<path d="M2.00008 19.3333H6.92308V12.564C6.92308 12.2589 7.0263 12.0031 7.23275 11.7967C7.43919 11.5904 7.69497 11.4873 8.00008 11.4873H12.0001C12.3052 11.4873 12.561 11.5904 12.7674 11.7967C12.9739 12.0031 13.0771 12.2589 13.0771 12.564V19.3333H18.0001V7.74367C18.0001 7.60678 17.9702 7.48278 17.9104 7.37167C17.8506 7.26056 17.7694 7.16233 17.6667 7.077L10.4874 1.66667C10.3505 1.54711 10.1881 1.48733 10.0001 1.48733C9.81208 1.48733 9.64964 1.54711 9.51275 1.66667L2.33341 7.077C2.23075 7.16233 2.14953 7.26056 2.08975 7.37167C2.02997 7.48278 2.00008 7.60678 2.00008 7.74367V19.3333ZM0.666748 19.3333V7.74367C0.666748 7.40255 0.743081 7.07944 0.895748 6.77433C1.04819 6.46922 1.25908 6.218 1.52841 6.02067L8.70775 0.584665C9.08353 0.297554 9.51297 0.153999 9.99608 0.153999C10.4792 0.153999 10.9113 0.297554 11.2924 0.584665L18.4717 6.02067C18.7411 6.218 18.952 6.46922 19.1044 6.77433C19.2571 7.07944 19.3334 7.40255 19.3334 7.74367V19.3333C19.3334 19.6907 19.2005 20.0022 18.9347 20.268C18.669 20.5338 18.3574 20.6667 18.0001 20.6667H12.8207C12.5154 20.6667 12.2596 20.5634 12.0534 20.357C11.847 20.1506 11.7437 19.8948 11.7437 19.5897V12.8207H8.25641V19.5897C8.25641 19.8948 8.15319 20.1506 7.94675 20.357C7.74053 20.5634 7.48475 20.6667 7.17941 20.6667H2.00008C1.64275 20.6667 1.33119 20.5338 1.06541 20.268C0.799637 20.0022 0.666748 19.6907 0.666748 19.3333Z" fill="#B0BEC5"/>
</svg>
