<svg width="32" height="33" viewBox="0 0 32 33" fill="none" xmlns="http://www.w3.org/2000/svg">
<path d="M7.48725 27.3407C6.87347 27.3407 6.36103 27.1351 5.94992 26.724C5.53881 26.3129 5.33325 25.8004 5.33325 25.1867V8.16132C5.33325 7.54755 5.53881 7.0351 5.94992 6.62399C6.36103 6.21288 6.87347 6.00732 7.48725 6.00732H24.5126C25.1264 6.00732 25.6388 6.21288 26.0499 6.62399C26.461 7.0351 26.6666 7.54755 26.6666 8.16132V25.1867C26.6666 25.8004 26.461 26.3129 26.0499 26.724C25.6388 27.1351 25.1264 27.3407 24.5126 27.3407H7.48725ZM7.48725 26.0073H24.5126C24.7519 26.0073 24.9486 25.9304 25.1026 25.7767C25.2564 25.6227 25.3333 25.426 25.3333 25.1867V21.4947H20.5639C20.0684 22.3391 19.4193 22.9947 18.6166 23.4613C17.8139 23.928 16.9417 24.1613 15.9999 24.1613C15.0581 24.1613 14.1859 23.928 13.3833 23.4613C12.5806 22.9947 11.9315 22.3391 11.4359 21.4947H6.66659V25.1867C6.66659 25.426 6.74347 25.6227 6.89725 25.7767C7.05125 25.9304 7.24792 26.0073 7.48725 26.0073ZM15.9999 22.828C16.8444 22.828 17.611 22.5835 18.2999 22.0947C18.9888 21.6058 19.4666 20.9613 19.7333 20.1613H25.3333V8.16132C25.3333 7.92199 25.2564 7.72532 25.1026 7.57132C24.9486 7.41755 24.7519 7.34066 24.5126 7.34066H7.48725C7.24792 7.34066 7.05125 7.41755 6.89725 7.57132C6.74347 7.72532 6.66659 7.92199 6.66659 8.16132V20.1613H12.2666C12.5333 20.9613 13.011 21.6058 13.6999 22.0947C14.3888 22.5835 15.1555 22.828 15.9999 22.828ZM7.48725 26.0073H6.66659H25.3333H7.48725Z" fill="white"/>
</svg>
