<svg width="95" height="46" viewBox="0 0 95 46" fill="none" xmlns="http://www.w3.org/2000/svg">
<path fill-rule="evenodd" clip-rule="evenodd" d="M40.7007 10.7266H49.7806L54.3414 19.149L49.7806 27.5715H40.7007L36.1399 19.149L40.7007 10.7266ZM49.1529 16.1319V14.2882V14.2463H41.3702V16.0901H44.2574V24.5963H46.2658V16.1319H49.1529Z" fill="white"/>
<path fill-rule="evenodd" clip-rule="evenodd" d="M40.7007 28.7871H49.7806L54.3414 37.2096L49.7806 45.6739H40.7007L36.1399 37.2096L40.7007 28.7871ZM43.7134 40.3523C43.546 40.1428 43.4205 39.8075 43.3787 39.3466V39.3885H41.5794C41.5794 40.3942 41.956 41.1903 42.6255 41.7769C43.3368 42.3636 44.2574 42.6569 45.4708 42.6569C46.6424 42.6569 47.5629 42.3636 48.1906 41.7769C48.8182 41.1903 49.1529 40.4361 49.1529 39.5561C49.1529 38.6761 48.86 38.0057 48.3161 37.5448C47.9395 37.2514 47.4374 37 46.7261 36.8324L45.136 36.4134C44.5084 36.2458 44.1318 36.1201 43.9226 35.9944C43.6297 35.8268 43.4624 35.5335 43.4624 35.1982C43.4624 34.8211 43.6297 34.5278 43.9226 34.3182C44.2155 34.1088 44.6339 33.983 45.136 33.983C45.5963 33.983 45.9729 34.0668 46.2658 34.2345C46.7261 34.4859 46.9771 34.9049 47.019 35.4915H48.86C48.8182 34.444 48.4416 33.6478 47.7721 33.1031C47.0608 32.5583 46.224 32.265 45.2616 32.265C44.1318 32.265 43.2113 32.5583 42.6255 33.145C41.9978 33.7316 41.7049 34.444 41.7049 35.3239C41.7049 36.2458 41.9978 36.9582 42.6255 37.4191C43.0021 37.7124 43.6715 37.9638 44.6339 38.1733L45.6381 38.4247C46.224 38.5504 46.6424 38.7181 46.8934 38.8857C47.1863 39.0533 47.3118 39.3047 47.3118 39.6399C47.3118 40.1846 47.019 40.5618 46.475 40.7713C46.1821 40.897 45.8055 40.9389 45.3452 40.9389C44.5921 40.9389 44.0481 40.7713 43.7134 40.3523Z" fill="white"/>
<path fill-rule="evenodd" clip-rule="evenodd" d="M55.3037 19.7773H64.4253L68.9862 28.1998L64.4253 36.6222H55.3037L50.7847 28.1998L55.3037 19.7773ZM61.7056 31.133H62.7517V29.5407H61.6637V23.0458H59.5298L55.9732 29.3312V31.133H59.8227V33.3539H61.7056V31.133ZM59.8227 25.0571V29.5407H57.3958L59.8227 25.0571Z" fill="white"/>
<path d="M59.6971 10.7266H55.471L53.3789 14.6654L55.471 18.5624H59.6971L61.8311 14.6654L59.6971 10.7266Z" fill="white"/>
<path d="M36.391 22.041H29.6962L26.3906 28.2007L29.6962 34.3604H36.391L39.6965 28.2007L36.391 22.041Z" fill="white"/>
<path d="M27.1437 18.2696C27.1437 8.84149 34.2988 1.21518 43.1275 1.21518C48.9436 1.21518 54.0484 4.5674 56.81 9.51193H58.1071C55.22 3.85505 49.5712 0 43.1275 0C33.6711 0 26.0139 8.21294 26.0139 18.2696C26.0139 20.4485 26.3905 22.5856 27.06 24.5131L27.8131 23.0884C27.3947 21.5799 27.1437 19.9457 27.1437 18.2696Z" fill="white"/>
</svg>
