<svg width="32" height="33" viewBox="0 0 32 33" fill="none" xmlns="http://www.w3.org/2000/svg">
<path d="M22.5126 18.8277C21.7846 18.8277 21.1582 18.5652 20.6333 18.0404C20.1084 17.5155 19.846 16.889 19.846 16.161C19.846 15.4328 20.1084 14.8062 20.6333 14.2814C21.1582 13.7567 21.7846 13.4944 22.5126 13.4944C23.2409 13.4944 23.8674 13.7567 24.3923 14.2814C24.917 14.8062 25.1793 15.4328 25.1793 16.161C25.1793 16.889 24.917 17.5155 24.3923 18.0404C23.8674 18.5652 23.2409 18.8277 22.5126 18.8277ZM16.5126 25.4944V24.2944C16.5126 23.8806 16.616 23.5055 16.8226 23.169C17.0291 22.8326 17.3224 22.5906 17.7026 22.443C18.4535 22.1268 19.2305 21.8896 20.0336 21.7314C20.8368 21.5734 21.6631 21.4944 22.5126 21.4944C23.3278 21.4944 24.1375 21.5734 24.942 21.7314C25.7464 21.8896 26.5401 22.1268 27.323 22.443C27.703 22.5906 27.9963 22.8326 28.203 23.169C28.4094 23.5055 28.5126 23.8806 28.5126 24.2944V25.4944H16.5126ZM12.8206 15.853C11.7206 15.853 10.779 15.4614 9.99564 14.678C9.21231 13.8947 8.82064 12.953 8.82064 11.853C8.82064 10.753 9.21231 9.81136 9.99564 9.02803C10.779 8.24469 11.7206 7.85303 12.8206 7.85303C13.9206 7.85303 14.8623 8.24469 15.6456 9.02803C16.429 9.81136 16.8206 10.753 16.8206 11.853C16.8206 12.953 16.429 13.8947 15.6456 14.678C14.8623 15.4614 13.9206 15.853 12.8206 15.853ZM3.4873 25.4944V23.2994C3.4873 22.7227 3.64619 22.1926 3.96397 21.709C4.28197 21.2257 4.71453 20.8686 5.26164 20.6377C6.44097 20.0395 7.66575 19.5882 8.93597 19.284C10.2062 18.9798 11.5011 18.8277 12.8206 18.8277C13.3591 18.8277 13.8975 18.8558 14.436 18.912C14.9744 18.9685 15.5129 19.0429 16.0513 19.1354L15.482 19.73C15.2922 19.9285 15.1024 20.1268 14.9126 20.325C14.564 20.2566 14.2153 20.2121 13.8666 20.1917C13.518 20.1712 13.1693 20.161 12.8206 20.161C11.6171 20.161 10.4285 20.2909 9.25497 20.5507C8.08164 20.8105 6.96242 21.2292 5.8973 21.807C5.60686 21.9695 5.35475 22.172 5.14097 22.4147C4.92742 22.6574 4.82064 22.9522 4.82064 23.2994V24.161H12.8206V25.4944H3.4873ZM12.8206 14.5197C13.554 14.5197 14.1817 14.2586 14.704 13.7364C15.2262 13.2141 15.4873 12.5864 15.4873 11.853C15.4873 11.1197 15.2262 10.4919 14.704 9.96969C14.1817 9.44747 13.554 9.18636 12.8206 9.18636C12.0873 9.18636 11.4595 9.44747 10.9373 9.96969C10.4151 10.4919 10.154 11.1197 10.154 11.853C10.154 12.5864 10.4151 13.2141 10.9373 13.7364C11.4595 14.2586 12.0873 14.5197 12.8206 14.5197Z" fill="white"/>
</svg>
