<svg width="22" height="22" viewBox="0 0 22 22" fill="none" xmlns="http://www.w3.org/2000/svg">
<path d="M20.2409 21.6667C17.9931 21.6667 15.6889 21.1039 13.3283 19.9783C10.9676 18.8526 8.77014 17.2726 6.73592 15.2383C4.71881 13.2043 3.14736 11.0112 2.02159 8.65901C0.89603 6.30679 0.333252 4.00679 0.333252 1.75901C0.333252 1.35901 0.466585 1.02134 0.733252 0.74601C0.999919 0.470899 1.33325 0.333344 1.73325 0.333344H5.03059C5.39303 0.333344 5.70925 0.447455 5.97925 0.675678C6.24947 0.9039 6.43247 1.19668 6.52825 1.55401L7.18959 4.73334C7.25114 5.10601 7.24003 5.43168 7.15625 5.71034C7.07247 5.98901 6.92459 6.21723 6.71259 6.39501L3.78725 9.12301C4.33414 10.1161 4.93881 11.0388 5.60125 11.891C6.2637 12.7432 6.97014 13.5505 7.72059 14.3127C8.49481 15.0871 9.32814 15.8072 10.2206 16.473C11.1128 17.1388 12.0923 17.7675 13.1589 18.359L16.0103 15.4563C16.2274 15.2221 16.4714 15.0679 16.7423 14.9937C17.0131 14.9192 17.3127 14.9042 17.6409 14.9487L20.4459 15.523C20.8084 15.6119 21.1025 15.7945 21.3283 16.0707C21.5538 16.3467 21.6666 16.6633 21.6666 17.0207V20.2667C21.6666 20.6667 21.529 21 21.2539 21.2667C20.9786 21.5333 20.6409 21.6667 20.2409 21.6667Z" fill="#3A0092"/>
</svg>
