<svg width="22" height="22" viewBox="0 0 22 22" fill="none" xmlns="http://www.w3.org/2000/svg">
<path d="M20.2409 21.6667C17.9931 21.6667 15.6889 21.1039 13.3283 19.9783C10.9676 18.8526 8.77436 17.2726 6.74859 15.2383C4.72303 13.2043 3.14736 11.0112 2.02159 8.65901C0.89603 6.30679 0.333252 4.00679 0.333252 1.75901C0.333252 1.35168 0.466585 1.01223 0.733252 0.740676C0.999919 0.46912 1.33325 0.333344 1.73325 0.333344H5.03059C5.39303 0.333344 5.70925 0.447455 5.97925 0.675678C6.24947 0.9039 6.43247 1.19668 6.52825 1.55401L7.18959 4.73334C7.25114 5.10601 7.24003 5.43168 7.15625 5.71034C7.07247 5.98901 6.92459 6.21723 6.71259 6.39501L3.78725 9.12301C4.33414 10.1161 4.93881 11.0388 5.60125 11.891C6.2637 12.7432 6.97014 13.5505 7.72059 14.3127C8.49481 15.0871 9.32814 15.8072 10.2206 16.473C11.1128 17.1388 12.0923 17.7675 13.1589 18.359L16.0103 15.4563C16.2274 15.2221 16.4714 15.0679 16.7423 14.9937C17.0131 14.9192 17.3127 14.9042 17.6409 14.9487L20.4459 15.523C20.8084 15.6119 21.1025 15.7945 21.3283 16.0707C21.5538 16.3467 21.6666 16.6633 21.6666 17.0207V20.2667C21.6666 20.6667 21.5308 21 21.2593 21.2667C20.9877 21.5333 20.6483 21.6667 20.2409 21.6667ZM3.16159 7.87168L5.72059 5.51801C5.80592 5.44957 5.86147 5.35557 5.88725 5.23601C5.91281 5.11623 5.90847 5.00512 5.87425 4.90268L5.28192 2.07701C5.2477 1.94012 5.18792 1.83757 5.10259 1.76934C5.01703 1.7009 4.90592 1.66668 4.76925 1.66668H2.03325C1.93059 1.66668 1.84514 1.7009 1.77692 1.76934C1.70847 1.83757 1.67425 1.92301 1.67425 2.02568C1.69981 2.93679 1.84259 3.88801 2.10259 4.87934C2.36236 5.8709 2.71536 6.86834 3.16159 7.87168ZM14.4283 18.9847C15.3289 19.4309 16.2891 19.7608 17.3089 19.9743C18.3285 20.1881 19.2169 20.3027 19.9743 20.318C20.0769 20.318 20.1624 20.2838 20.2306 20.2153C20.299 20.1469 20.3333 20.0615 20.3333 19.959V17.282C20.3333 17.1453 20.299 17.0342 20.2306 16.9487C20.1624 16.8633 20.0598 16.8036 19.9229 16.7693L17.4563 16.264C17.3538 16.2298 17.2641 16.2256 17.1873 16.2513C17.1101 16.2769 17.0289 16.3325 16.9436 16.418L14.4283 18.9847Z" fill="#B0BEC5"/>
</svg>
