<svg width="32" height="33" viewBox="0 0 32 33" fill="none" xmlns="http://www.w3.org/2000/svg">
<path d="M12.7999 20.4993L13.7436 19.5403L10.8769 16.6737L13.7436 13.807L12.7999 12.848L8.97425 16.6737L12.7999 20.4993ZM19.1999 20.4993L23.0256 16.6737L19.1999 12.848L18.2563 13.807L21.1229 16.6737L18.2563 19.5403L19.1999 20.4993ZM7.48725 27.3403C6.89059 27.3403 6.38236 27.1306 5.96259 26.711C5.54303 26.2912 5.33325 25.783 5.33325 25.1863V8.161C5.33325 7.56433 5.54303 7.05611 5.96259 6.63633C6.38236 6.21678 6.89059 6.007 7.48725 6.007H13.7539C13.6324 5.32655 13.7951 4.712 14.2423 4.16333C14.6891 3.61467 15.275 3.34033 15.9999 3.34033C16.7417 3.34033 17.3361 3.61467 17.7833 4.16333C18.2304 4.712 18.3846 5.32655 18.2459 6.007H24.5126C25.1093 6.007 25.6175 6.21678 26.0373 6.63633C26.4568 7.05611 26.6666 7.56433 26.6666 8.161V25.1863C26.6666 25.783 26.4568 26.2912 26.0373 26.711C25.6175 27.1306 25.1093 27.3403 24.5126 27.3403H7.48725ZM7.48725 26.007H24.5126C24.7179 26.007 24.906 25.9216 25.0769 25.7507C25.2478 25.5798 25.3333 25.3917 25.3333 25.1863V8.161C25.3333 7.95567 25.2478 7.76755 25.0769 7.59667C24.906 7.42578 24.7179 7.34033 24.5126 7.34033H7.48725C7.28192 7.34033 7.09381 7.42578 6.92292 7.59667C6.75203 7.76755 6.66659 7.95567 6.66659 8.161V25.1863C6.66659 25.3917 6.75203 25.5798 6.92292 25.7507C7.09381 25.9216 7.28192 26.007 7.48725 26.007ZM15.9999 6.59667C16.2888 6.59667 16.5277 6.50222 16.7166 6.31333C16.9055 6.12444 16.9999 5.88555 16.9999 5.59667C16.9999 5.30778 16.9055 5.06889 16.7166 4.88C16.5277 4.69111 16.2888 4.59667 15.9999 4.59667C15.711 4.59667 15.4721 4.69111 15.2833 4.88C15.0944 5.06889 14.9999 5.30778 14.9999 5.59667C14.9999 5.88555 15.0944 6.12444 15.2833 6.31333C15.4721 6.50222 15.711 6.59667 15.9999 6.59667Z" fill="white"/>
</svg>
