<svg width="32" height="33" viewBox="0 0 32 33" fill="none" xmlns="http://www.w3.org/2000/svg">
<path d="M1.33325 24.1096V22.9583C1.33325 22.1394 1.77081 21.4599 2.64592 20.9196C3.52125 20.3796 4.64781 20.1096 6.02559 20.1096C6.22892 20.1096 6.44681 20.1194 6.67925 20.139C6.91192 20.1588 7.15903 20.1909 7.42059 20.2353C7.21192 20.5993 7.0597 20.9728 6.96392 21.3556C6.86836 21.7385 6.82059 22.1223 6.82059 22.507V24.1096H1.33325ZM9.33325 24.1096V22.6096C9.33325 22.0723 9.48925 21.5811 9.80125 21.136C10.1133 20.6911 10.5735 20.3062 11.1819 19.9813C11.7906 19.6566 12.4996 19.4131 13.3089 19.2506C14.1183 19.0882 15.0118 19.007 15.9896 19.007C16.9863 19.007 17.8893 19.0882 18.6986 19.2506C19.5079 19.4131 20.2169 19.6566 20.8256 19.9813C21.434 20.3062 21.893 20.6911 22.2026 21.136C22.5119 21.5811 22.6666 22.0723 22.6666 22.6096V24.1096H9.33325ZM25.1793 24.1096V22.5146C25.1793 22.0893 25.1327 21.6885 25.0396 21.3123C24.9465 20.9361 24.8068 20.5771 24.6206 20.2353C24.899 20.1909 25.149 20.1588 25.3706 20.139C25.5919 20.1194 25.8017 20.1096 25.9999 20.1096C27.3777 20.1096 28.4999 20.3784 29.3666 20.916C30.2333 21.4535 30.6666 22.1343 30.6666 22.9583V24.1096H25.1793ZM10.7049 22.7763H21.3026V22.4943C21.2513 21.8616 20.7328 21.3445 19.7473 20.943C18.7619 20.5412 17.5128 20.3403 15.9999 20.3403C14.487 20.3403 13.2379 20.5412 12.2526 20.943C11.267 21.3445 10.7511 21.8616 10.7049 22.4943V22.7763ZM6.01859 18.853C5.49503 18.853 5.04903 18.6672 4.68059 18.2956C4.31236 17.9241 4.12825 17.4774 4.12825 16.9556C4.12825 16.4394 4.31403 15.9984 4.68559 15.6326C5.05714 15.2669 5.50381 15.084 6.02559 15.084C6.54181 15.084 6.98714 15.2669 7.36159 15.6326C7.73581 15.9984 7.92292 16.442 7.92292 16.9633C7.92292 17.4693 7.74047 17.9108 7.37559 18.2876C7.01047 18.6645 6.55814 18.853 6.01859 18.853ZM25.9999 18.853C25.4888 18.853 25.0448 18.6645 24.6679 18.2876C24.291 17.9108 24.1026 17.4693 24.1026 16.9633C24.1026 16.442 24.291 15.9984 24.6679 15.6326C25.0448 15.2669 25.4905 15.084 26.0049 15.084C26.5349 15.084 26.9828 15.2669 27.3486 15.6326C27.7144 15.9984 27.8973 16.4394 27.8973 16.9556C27.8973 17.4774 27.7155 17.9241 27.3519 18.2956C26.9881 18.6672 26.5375 18.853 25.9999 18.853ZM16.0089 18.007C15.1996 18.007 14.5086 17.7228 13.9359 17.1543C13.3633 16.5861 13.0769 15.896 13.0769 15.084C13.0769 14.2558 13.361 13.5615 13.9293 13.0013C14.4977 12.4409 15.1879 12.1606 15.9999 12.1606C16.8281 12.1606 17.5224 12.44 18.0826 12.9986C18.6428 13.5571 18.9229 14.2492 18.9229 15.075C18.9229 15.8843 18.6437 16.5753 18.0853 17.148C17.5268 17.7206 16.8347 18.007 16.0089 18.007ZM16.0126 16.6736C16.4504 16.6736 16.8226 16.516 17.1293 16.2006C17.4361 15.8851 17.5896 15.5085 17.5896 15.071C17.5896 14.6334 17.4373 14.2612 17.1326 13.9543C16.8279 13.6474 16.4504 13.494 15.9999 13.494C15.5708 13.494 15.1986 13.6464 14.8833 13.9513C14.5679 14.256 14.4103 14.6335 14.4103 15.084C14.4103 15.5129 14.5679 15.8851 14.8833 16.2006C15.1986 16.516 15.575 16.6736 16.0126 16.6736Z" fill="white"/>
</svg>
